<svg width="42" height="41" viewBox="0 0 42 41" fill="none" xmlns="http://www.w3.org/2000/svg">
<path d="M8.79927 0.827518C7.64075 3.22732 5.3237 5.87538 0.74477 7.11665C0.386179 7.22699 0 6.95115 0 6.56497V4.52376C0 4.27551 0.165504 4.05484 0.413759 3.97209C3.11699 3.11698 4.68927 1.7102 5.62712 0.275839C5.73746 0.110336 5.90297 0 6.12364 0H8.30277C8.68894 0 8.96478 0.441343 8.79927 0.827518Z" fill="black"/>
<path d="M16.909 0.717184C15.5022 5.87538 11.5577 13.0748 0.717184 15.8056C0.358593 15.8883 0 15.6125 0 15.2539V13.2403C0 12.992 0.165505 12.7438 0.441345 12.6886C9.24062 10.3164 12.5783 4.66168 13.8471 0.413759C13.9299 0.165504 14.1506 0 14.3988 0H16.3573C16.7159 0 16.9917 0.358593 16.909 0.717184Z" fill="black"/>
<path d="M24.1359 0C24.4945 0 24.7704 0.331007 24.7152 0.689598C24.5773 1.35161 24.4394 2.04121 24.2187 2.78598C22.3706 9.35096 16.8814 18.895 0.689598 21.7361C0.331007 21.7913 0 21.5155 0 21.1569V19.1708C0 18.895 0.193091 18.6467 0.46893 18.6192C16.3297 15.6953 20.55 6.04089 21.6534 0.46893C21.7086 0.193091 21.9292 0 22.2051 0H24.1359Z" fill="black"/>
<path d="M41.5965 3.50306V14.3987C41.5965 14.7297 41.3483 14.978 41.0172 14.978H39.0588C38.7278 14.978 38.4795 14.7297 38.4795 14.3987V3.50306C38.4795 3.28239 38.2864 3.11687 38.0658 3.11687H29.101C28.77 3.11687 28.5217 2.86863 28.5217 2.53762V0.661906C28.5217 0.330899 28.77 0.0826416 29.101 0.0826416H38.0658C40.0242 0.0826416 41.5965 1.59976 41.5965 3.50306Z" fill="black"/>
<path d="M0 36.99V26.0943C0 25.7633 0.248257 25.5151 0.579264 25.5151H2.53773C2.86873 25.5151 3.11698 25.7633 3.11698 26.0943V36.99C3.11698 37.2107 3.31007 37.3762 3.53074 37.3762H12.4955C12.8265 37.3762 13.0748 37.6244 13.0748 37.9554V39.8311C13.0748 40.1622 12.8265 40.4104 12.4955 40.4104H3.53074C1.57228 40.4104 0 38.8933 0 36.99Z" fill="black"/>
<path d="M39.7761 21.2395L38.4796 20.4396L30.9216 15.8055C29.8459 15.1434 28.4667 15.171 27.4185 15.9158L18.7295 22.067C17.8744 22.6739 17.3779 23.6393 17.3779 24.6875V38.0105C17.3779 39.3621 18.4813 40.4379 19.8053 40.4379H39.1417C40.4933 40.4379 41.569 39.3346 41.569 38.0105V24.4668C41.5966 23.1428 40.907 21.9291 39.7761 21.2395ZM39.1141 36.6313C39.1141 37.0175 38.8106 37.3485 38.4245 37.3485H38.2866C38.2314 37.3761 38.1762 37.4037 38.1211 37.4037H35.5558L20.6328 37.6244C20.4397 37.6519 20.2467 37.5692 20.1363 37.4313C20.1363 37.4313 20.1363 37.4313 20.1087 37.4037C19.9708 37.2658 19.9157 37.1003 19.9157 36.9072V24.6599C19.9157 24.4392 20.026 24.2186 20.2191 24.0806L28.8804 17.957C28.9908 17.8743 29.1563 17.8191 29.2942 17.8191C29.4321 17.8191 29.5424 17.8467 29.6804 17.9294L38.5348 23.3359C38.921 23.5565 39.1692 23.9703 39.1692 24.4392V36.6313H39.1141Z" fill="black"/>
</svg>
