<svg width="20" height="17" viewBox="0 0 20 17" fill="none" xmlns="http://www.w3.org/2000/svg">
<path d="M12.6763 1.66105L6.02352 4.85454C5.51151 5.10031 4.96443 5.16189 4.40675 5.03695C4.04177 4.95519 3.85926 4.91431 3.7123 4.89753C1.88743 4.68914 0.75 6.13344 0.75 7.79429V8.70575C0.75 10.3666 1.88743 11.8109 3.7123 11.6025C3.85926 11.5857 4.04178 11.5448 4.40675 11.4631C4.96443 11.3381 5.51151 11.3997 6.02352 11.6455L12.6763 14.839C14.2034 15.5721 14.967 15.9386 15.8184 15.6529C16.6697 15.3672 16.9619 14.7541 17.5464 13.528C19.1512 10.1612 19.1512 6.33887 17.5464 2.97198C16.9619 1.74588 16.6697 1.13283 15.8184 0.847122C14.967 0.561422 14.2034 0.927962 12.6763 1.66105Z" stroke="#FFFFFA" stroke-width="1.5" stroke-linecap="round" stroke-linejoin="round"/>
</svg>
